<svg version="1.2" xmlns="http://www.w3.org/2000/svg" viewBox="0 0 512 309" width="512" height="309"><style>.a{fill:#fff}</style><path class="a" d="m120.8 80.6h96.6v7.6h-87.7v57.8h82.4v7.7h-82.4v63.4h88.7v7.7h-97.6zm105.2 0h10.3l45.5 63.4 46.4-63.4 63.2-80.6-103.8 150.7 53.5 74.1h-10.7l-48.6-67.5-48.9 67.5h-10.5l53.9-74.1zm118.9 7.6v-7.6h110.1v7.6h-50.7v136.6h-8.9v-136.6zm-344.9-7.6h11.1l152.5 228.3-63-84.1-91.4-133.3-0.4 133.3h-8.8zm454.1 134.2c-1.8 0-3.2-1.4-3.2-3.2 0-1.8 1.4-3.2 3.2-3.2 1.8 0 3.1 1.4 3.1 3.2 0 1.8-1.3 3.2-3.1 3.2zm8.7-8.4h4.7c0.1 2.5 1.9 4.2 4.7 4.2 3.1 0 4.8-1.8 4.8-5.3v-22h4.9v22c0 6.3-3.7 9.9-9.7 9.9-5.6 0-9.4-3.5-9.4-8.8zm25.4-0.3h4.7c0.4 2.9 3.3 4.8 7.5 4.8 3.9 0 6.7-2 6.7-4.8 0-2.3-1.8-3.8-5.9-4.7l-4-1c-5.6-1.3-8.2-4-8.2-8.6 0-5.5 4.5-9.2 11.3-9.2 6.3 0 10.9 3.7 11.2 8.9h-4.7c-0.4-2.9-2.9-4.7-6.6-4.7-3.8 0-6.3 1.9-6.3 4.7 0 2.2 1.6 3.5 5.7 4.4l3.4 0.9c6.4 1.4 9 4 9 8.7 0 6-4.6 9.7-12 9.7-6.9 0-11.5-3.6-11.8-9.1z"/></svg>